<svg xmlns="http://www.w3.org/2000/svg" width="15" height="15" viewBox="0 0 15 15">
    <g fill="none" fill-rule="evenodd">
        <circle cx="7.5" cy="7.5" r="7.5" fill="#C13584"/>
        <path fill="#FFF" fill-rule="nonzero" d="M8.571 8.143C8.571 7.513 8.058 7 7.43 7c-.63 0-1.143.513-1.143 1.143s.513 1.143 1.143 1.143c.629 0 1.142-.514 1.142-1.143zm.617 0c0 .973-.786 1.759-1.76 1.759a1.757 1.757 0 0 1-1.758-1.76c0-.972.785-1.758 1.759-1.758.973 0 1.759.786 1.759 1.759zm.482-1.83a.41.41 0 0 1-.411.41.41.41 0 0 1-.41-.41.41.41 0 0 1 .41-.411.41.41 0 0 1 .41.41zM7.429 5.33c-.5 0-1.572-.04-2.023.139a1.096 1.096 0 0 0-.393.259c-.12.12-.196.236-.259.393-.178.45-.138 1.522-.138 2.022 0 .5-.04 1.571.138 2.022.063.156.139.272.26.393.12.12.236.196.392.259.451.179 1.523.138 2.023.138.5 0 1.571.04 2.022-.138.156-.063.272-.138.393-.259.12-.12.196-.237.259-.393.178-.45.138-1.522.138-2.022 0-.5.04-1.572-.138-2.022a1.096 1.096 0 0 0-.26-.393 1.096 1.096 0 0 0-.392-.26C9 5.29 7.929 5.33 7.429 5.33zm3.428 2.813c0 .473.005.942-.022 1.415-.027.55-.152 1.036-.554 1.438-.402.401-.888.526-1.437.553-.473.027-.942.022-1.415.022-.474 0-.942.005-1.416-.022-.549-.027-1.035-.152-1.437-.553-.402-.402-.527-.889-.554-1.438C3.996 9.085 4 8.616 4 8.143c0-.473-.004-.942.022-1.415.027-.55.152-1.036.554-1.438.402-.402.888-.527 1.437-.553.474-.027.942-.023 1.416-.023.473 0 .942-.004 1.415.023.549.026 1.035.151 1.437.553.402.402.527.889.554 1.438.027.473.022.942.022 1.415z"/>
    </g>
</svg>
