<svg xmlns="http://www.w3.org/2000/svg" width="15" height="15" viewBox="0 0 15 15">
    <g fill="none" fill-rule="evenodd">
        <circle cx="7.5" cy="7.5" r="7.5" fill="#007AB7"/>
        <path fill="#FFF" fill-rule="nonzero" d="M5.558 5.933v4.424H4.085V5.933h1.473zm.094-1.366c.004.424-.317.763-.83.763h-.01C4.318 5.33 4 4.991 4 4.567c0-.433.33-.763.83-.763.505 0 .817.33.822.763zm2.187 1.995c.194-.303.544-.732 1.326-.732.969 0 1.692.634 1.692 1.991v2.536H9.388V7.991c0-.594-.214-1-.745-1-.406 0-.647.272-.755.536-.035.098-.049.227-.049.361v2.47H6.371c.017-4.01 0-4.425 0-4.425h1.468v.629z"/>
    </g>
</svg>
